<svg width="114" height="12" viewBox="0 0 114 12" fill="none" xmlns="http://www.w3.org/2000/svg">
<path d="M6 0.666658C3.05448 0.666657 0.666664 3.05447 0.666664 5.99999C0.666664 8.94551 3.05448 11.3333 6 11.3333C8.94552 11.3333 11.3333 8.94551 11.3333 5.99999C11.3333 3.05447 8.94552 0.666658 6 0.666658ZM108 0.666667C105.054 0.666666 102.667 3.05448 102.667 6C102.667 8.94552 105.054 11.3333 108 11.3333C110.946 11.3333 113.333 8.94552 113.333 6C113.333 3.05448 110.946 0.666667 108 0.666667ZM6 6.99999L108 7L108 5L6 4.99999L6 6.99999Z" fill="#3180FF"/>
</svg>
