<svg width="196" height="134" viewBox="0 0 196 134" fill="none" xmlns="http://www.w3.org/2000/svg">
<path d="M30.9877 120.325L31.6996 120.226C32.5457 120.108 33.2998 120.11 33.9619 120.23C34.6241 120.35 35.1819 120.578 35.6353 120.914C36.0888 121.249 36.4282 121.681 36.6534 122.208C36.8788 122.731 36.9777 123.338 36.9501 124.03C36.9234 124.702 36.775 125.336 36.5049 125.932C36.2351 126.523 35.8573 127.057 35.3714 127.533C34.8858 128.004 34.3032 128.399 33.6236 128.715C32.944 129.032 32.1812 129.25 31.3352 129.367L30.6232 129.466C29.7772 129.583 29.0258 129.579 28.369 129.453C27.7073 129.322 27.1498 129.086 26.6965 128.746C26.2381 128.406 25.8962 127.974 25.6707 127.452C25.4455 126.924 25.3463 126.325 25.3731 125.653C25.4007 124.961 25.5494 124.32 25.8192 123.728C26.0892 123.132 26.4695 122.6 26.9601 122.134C27.4458 121.663 28.0282 121.274 28.7073 120.967C29.3815 120.656 30.1417 120.442 30.9877 120.325ZM31.6402 121.717L30.9128 121.818C30.2421 121.911 29.6461 122.064 29.1246 122.276C28.6033 122.483 28.162 122.743 27.8006 123.057C27.4392 123.371 27.1606 123.734 26.9646 124.144C26.7689 124.549 26.6614 124.993 26.6421 125.477C26.6235 125.946 26.6968 126.357 26.8622 126.712C27.0279 127.062 27.2807 127.347 27.6207 127.569C27.9609 127.786 28.3861 127.931 28.8961 128.006C29.4062 128.08 29.9966 128.07 30.6672 127.977L31.3946 127.876C32.0704 127.782 32.6717 127.626 33.1986 127.408C33.7203 127.191 34.1645 126.922 34.5313 126.602C34.8931 126.277 35.1717 125.915 35.3672 125.516C35.5629 125.111 35.6701 124.674 35.6888 124.206C35.7083 123.716 35.6353 123.294 35.4699 122.939C35.3045 122.585 35.0516 122.301 34.7112 122.09C34.3658 121.874 33.9379 121.734 33.4274 121.67C32.9117 121.608 32.316 121.623 31.6402 121.717Z" fill="#344455"/>
<path d="M36.2632 108.665L29.7632 108.65L30.0431 107.224L38.4962 107.244L38.2299 108.601L36.2632 108.665ZM34.5346 108.393L34.6349 107.802C35.1974 107.804 35.7067 107.864 36.1627 107.983C36.6146 108.096 36.99 108.281 37.2888 108.538C37.5876 108.794 37.7953 109.129 37.9119 109.544C38.0234 109.958 38.0209 110.462 37.9046 111.055C37.8253 111.458 37.6927 111.829 37.5067 112.166C37.3217 112.498 37.0806 112.784 36.7834 113.023C36.4863 113.263 36.1241 113.448 35.697 113.58C35.2709 113.707 34.7766 113.77 34.2141 113.769L28.761 113.755L29.0394 112.337L34.5081 112.35C34.8883 112.351 35.2114 112.311 35.4775 112.23C35.7393 112.144 35.9572 112.029 36.1312 111.886C36.3009 111.739 36.4319 111.575 36.5243 111.397C36.6177 111.213 36.6835 111.024 36.7216 110.829C36.84 110.226 36.8166 109.748 36.6515 109.395C36.4811 109.042 36.2105 108.788 35.8395 108.634C35.4644 108.474 35.0294 108.394 34.5346 108.393Z" fill="#344455"/>
<path d="M34.687 96.9876L41.7311 98.0584L41.2502 99.4213L32.8931 98.1509L33.361 96.8248L34.687 96.9876ZM34.2063 94.2908L35.5321 94.5001C35.4665 94.6091 35.413 94.7148 35.3714 94.8172C35.3265 94.9139 35.2815 95.026 35.2364 95.1537C35.1255 95.4681 35.0791 95.7534 35.0971 96.0097C35.1152 96.2661 35.1875 96.4918 35.3139 96.687C35.4403 96.8821 35.615 97.0484 35.8378 97.1858C36.0572 97.3175 36.3135 97.4211 36.6069 97.4968L36.7035 97.9151C36.1989 97.8384 35.7416 97.7197 35.3317 97.5591C34.9235 97.3935 34.5851 97.1842 34.3163 96.9312C34.0423 96.6774 33.8647 96.3813 33.7833 96.0429C33.6986 95.6988 33.7325 95.3107 33.885 94.8784C33.9196 94.7802 33.9724 94.6692 34.0432 94.5454C34.1088 94.4208 34.1632 94.336 34.2063 94.2908Z" fill="#344455"/>
<path d="M45.781 67.3794L52.8513 75.2028L51.9714 76.4655L44.3305 67.714L44.8978 66.9L45.781 67.3794ZM56.8088 69.5239L45.4281 67.8858L44.5181 67.4448L45.0854 66.6308L57.6933 68.2548L56.8088 69.5239ZM52.9509 67.7613L54.0491 68.3249L50.3953 73.568L49.2971 73.0044L52.9509 67.7613Z" fill="#344455"/>
<path d="M63.7717 59.1903L55.5124 52.9373L56.4876 51.8601L66.055 59.1033L65.1636 60.0879L63.7717 59.1903ZM57.9675 61.9022L57.8367 61.8032C57.3218 61.4133 56.9071 61.0018 56.5926 60.5684C56.2774 60.128 56.0661 59.685 55.9587 59.2393C55.8548 58.7897 55.8582 58.353 55.9689 57.9293C56.079 57.4985 56.3035 57.0959 56.6426 56.7213C56.9992 56.3275 57.385 56.0405 57.8002 55.8602C58.2147 55.6729 58.6558 55.5839 59.1234 55.593C59.5904 55.5952 60.0753 55.6857 60.5781 55.8647C61.081 56.0437 61.6025 56.2986 62.1428 56.6295L62.7158 57.0634C63.1715 57.48 63.5407 57.8993 63.8233 58.3216C64.1095 58.7399 64.2972 59.1587 64.3867 59.5778C64.4796 59.993 64.4663 60.4059 64.3466 60.8164C64.2228 61.2237 63.9809 61.6262 63.6208 62.0239C63.2887 62.3907 62.8995 62.6622 62.4531 62.8383C62.0102 63.0106 61.5354 63.0904 61.0289 63.0779C60.5259 63.0614 60.0125 62.9559 59.4889 62.7612C58.9647 62.5595 58.4575 62.2732 57.9675 61.9022ZM58.812 60.726L58.9428 60.825C59.2792 61.0796 59.6227 61.2877 59.9735 61.4491C60.3277 61.6067 60.6781 61.7028 61.0247 61.7374C61.3713 61.772 61.7033 61.7338 62.0208 61.6228C62.3342 61.5086 62.6219 61.3067 62.8841 61.0171C63.2057 60.6619 63.3886 60.3091 63.4329 59.9587C63.4807 59.6044 63.4346 59.2572 63.2947 58.917C63.1548 58.5768 62.9641 58.2502 62.7226 57.9372L61.2214 56.8007C60.9511 56.6742 60.6698 56.5751 60.3777 56.5036C60.0848 56.425 59.7924 56.3924 59.5005 56.4056C59.2079 56.4119 58.9209 56.4777 58.6394 56.603C58.3615 56.7244 58.1002 56.9203 57.8555 57.1906C57.5898 57.484 57.4273 57.7872 57.3679 58.1002C57.3079 58.4061 57.3309 58.7131 57.437 59.0212C57.5388 59.3261 57.7096 59.6245 57.9491 59.9165C58.188 60.2015 58.4756 60.4713 58.812 60.726Z" fill="#344455"/>
<path d="M72.682 49.9142L69.596 43.1438L70.7151 42.1806L74.1336 50.3853L73.3994 51.0172L72.682 49.9142ZM66.3807 45.9112L73.0519 49.6473L74.0329 50.4719L73.2987 51.1039L65.2557 46.8795L66.3807 45.9112Z" fill="#344455"/>
<path d="M86.7079 39.2708L84.3884 35.5889C84.2108 35.3069 84.0003 35.0998 83.7571 34.9677C83.5155 34.8284 83.248 34.775 82.9547 34.8076C82.6614 34.8402 82.3522 34.9647 82.027 35.1812C81.7235 35.3832 81.4902 35.6136 81.327 35.8723C81.1682 36.1281 81.0779 36.3853 81.0561 36.6437C81.0386 36.8993 81.0923 37.1262 81.2173 37.3245L80.0141 38.1254C79.8531 37.8698 79.7585 37.5731 79.7303 37.2353C79.7022 36.8976 79.7456 36.5465 79.8607 36.1822C79.9774 35.8106 80.1695 35.4513 80.437 35.1043C80.7061 34.75 81.0531 34.4315 81.478 34.1487C81.9896 33.8081 82.4961 33.5961 82.9973 33.5126C83.5029 33.4263 83.9787 33.488 84.4247 33.6977C84.8722 33.9002 85.264 34.268 85.5999 34.8013L87.6987 38.1328C87.8486 38.3707 88.0278 38.6111 88.2361 38.854C88.4488 39.0939 88.6574 39.2834 88.862 39.4225L88.9286 39.5283L87.6734 40.3638C87.5239 40.2631 87.3582 40.1076 87.1764 39.8971C86.9918 39.6823 86.8356 39.4735 86.7079 39.2708ZM84.9547 36.0189L85.509 36.8695L84.2929 37.679C83.9504 37.907 83.6628 38.1391 83.43 38.3754C83.1945 38.6072 83.0205 38.8388 82.9078 39.0701C82.7951 39.3015 82.7438 39.5327 82.7539 39.7636C82.7612 39.9902 82.8343 40.2136 82.9731 40.434C83.1147 40.6587 83.2936 40.8304 83.51 40.9491C83.7263 41.0678 83.9689 41.1159 84.2377 41.0933C84.5081 41.0634 84.7907 40.9504 85.0855 40.7541C85.4541 40.5088 85.7293 40.213 85.9112 39.8668C86.093 39.5206 86.1942 39.178 86.2146 38.8392C86.2393 38.4975 86.1901 38.2144 86.0671 37.9898L86.9515 38.2361C87.0377 38.4414 87.0845 38.7011 87.0916 39.0153C87.0988 39.3296 87.0549 39.6653 86.96 40.0224C86.8665 40.3723 86.709 40.718 86.4872 41.0596C86.267 41.3938 85.9661 41.6879 85.5846 41.9418C85.1076 42.2593 84.6296 42.4431 84.1503 42.4931C83.6754 42.5403 83.2383 42.4716 82.839 42.287C82.4412 42.0952 82.1174 41.801 81.8676 41.4044C81.626 41.021 81.4874 40.6348 81.4515 40.2459C81.413 39.8525 81.4713 39.4665 81.6267 39.0879C81.7792 38.7049 82.0187 38.3328 82.345 37.9717C82.6714 37.6107 83.0752 37.2699 83.5564 36.9496L84.9547 36.0189Z" fill="#344455"/>
<path d="M95.0593 29.5602L97.5403 35.7284L96.2473 36.3741L93.0927 28.5316L94.3159 27.9208L95.0593 29.5602ZM95.536 31.6635L94.9891 31.9106C94.778 31.3719 94.6556 30.8382 94.622 30.3095C94.5865 29.776 94.6358 29.2726 94.77 28.7994C94.9042 28.3262 95.1208 27.9047 95.4197 27.5349C95.7213 27.158 96.1005 26.8555 96.5571 26.6275C96.9299 26.4413 97.2867 26.3269 97.6277 26.2843C97.9667 26.2369 98.2868 26.2743 98.5878 26.3967C98.8935 26.5168 99.1752 26.7301 99.4328 27.0367C99.6884 27.3384 99.9202 27.7478 100.128 28.2648L102.195 33.4037L100.895 34.0529L98.8223 28.8995C98.6571 28.4888 98.4667 28.1893 98.2511 28.001C98.0335 27.8079 97.7906 27.7117 97.5222 27.7122C97.2519 27.708 96.9537 27.7873 96.6275 27.9502C96.306 28.1107 96.0406 28.3274 95.8314 28.6002C95.6268 28.8706 95.4786 29.1767 95.3866 29.5186C95.2994 29.8581 95.2663 30.2141 95.2874 30.5865C95.3113 30.9518 95.3941 31.3108 95.536 31.6635Z" fill="#344455"/>
<path d="M112.212 20.2831L112.441 21.3686L108.127 22.8777L107.898 21.7922L112.212 20.2831ZM108.934 19.2709L110.298 18.7937L112.034 27.0269C112.093 27.3072 112.179 27.504 112.293 27.6175C112.407 27.731 112.535 27.7874 112.677 27.7868C112.819 27.7863 112.967 27.7593 113.119 27.706C113.232 27.6665 113.348 27.615 113.467 27.5516C113.589 27.4814 113.681 27.4275 113.741 27.3899L113.992 28.5416C113.891 28.6151 113.756 28.6981 113.585 28.7906C113.421 28.8865 113.216 28.9774 112.97 29.0634C112.635 29.1803 112.314 29.219 112.004 29.1794C111.695 29.1399 111.423 28.9888 111.188 28.7262C110.957 28.4568 110.784 28.0468 110.668 27.4964L108.934 19.2709Z" fill="#344455"/>
<path d="M127.993 23.1186L127.816 18.7706C127.803 18.4375 127.725 18.1625 127.583 17.9455C127.445 17.7223 127.243 17.5702 126.978 17.4891C126.712 17.408 126.388 17.4073 126.006 17.4871C125.649 17.5615 125.338 17.6893 125.073 17.8706C124.813 18.0507 124.61 18.2583 124.466 18.4931C124.326 18.7269 124.261 18.9609 124.27 19.1951L122.856 19.4901C122.843 19.1883 122.908 18.8731 123.049 18.5446C123.19 18.216 123.398 17.9023 123.674 17.6034C123.954 17.2982 124.293 17.0333 124.69 16.8089C125.092 16.5781 125.543 16.4106 126.043 16.3064C126.645 16.181 127.179 16.1745 127.646 16.287C128.119 16.3984 128.494 16.6377 128.771 17.0051C129.053 17.3661 129.206 17.8615 129.232 18.4912L129.391 22.4254C129.403 22.7064 129.438 23.0009 129.497 23.3088C129.561 23.6156 129.646 23.8734 129.752 24.0822L129.757 24.2071L128.281 24.5148C128.203 24.3632 128.138 24.1537 128.086 23.8864C128.033 23.6139 128.002 23.3579 127.993 23.1186ZM128.088 19.3909L128.145 20.4025L126.715 20.7007C126.312 20.7847 125.954 20.8934 125.64 21.027C125.327 21.1554 125.066 21.3069 124.857 21.4817C124.648 21.6564 124.491 21.8544 124.387 22.0755C124.283 22.2915 124.236 22.5295 124.246 22.7897C124.257 23.0551 124.326 23.2849 124.452 23.479C124.578 23.6731 124.761 23.8108 125.001 23.892C125.245 23.9669 125.541 23.9682 125.888 23.896C126.321 23.8056 126.7 23.6322 127.024 23.3757C127.347 23.1193 127.601 22.8355 127.784 22.5245C127.971 22.2125 128.068 21.9273 128.073 21.6691L128.705 22.2379C128.678 22.4639 128.591 22.7261 128.444 23.0245C128.297 23.3228 128.095 23.6219 127.84 23.9218C127.59 24.2154 127.287 24.4806 126.931 24.7174C126.581 24.948 126.181 25.11 125.733 25.2036C125.172 25.3205 124.675 25.3112 124.243 25.1757C123.816 25.0391 123.477 24.8079 123.228 24.4821C122.983 24.1501 122.851 23.7499 122.832 23.2815C122.813 22.8288 122.884 22.4126 123.043 22.033C123.203 21.6481 123.441 21.3072 123.758 21.0102C124.075 20.708 124.46 20.4492 124.914 20.2338C125.368 20.0184 125.878 19.8517 126.444 19.7337L128.088 19.3909Z" fill="#344455"/>
<path d="M143.292 15.1098L144.602 15.0197L143.628 23.2357C143.54 23.9753 143.315 24.6167 142.952 25.1598C142.588 25.7029 142.121 26.1275 141.548 26.4337C140.981 26.7446 140.346 26.9242 139.645 26.9725C139.354 26.9925 139.016 26.9696 138.632 26.9036C138.253 26.8425 137.887 26.7164 137.533 26.5253C137.184 26.339 136.904 26.0735 136.692 25.729L137.549 24.8236C137.852 25.2234 138.186 25.4928 138.551 25.6319C138.921 25.7706 139.296 25.8269 139.675 25.8008C140.133 25.7693 140.538 25.6568 140.89 25.4632C141.243 25.2697 141.53 24.9985 141.752 24.6498C141.978 24.3059 142.12 23.8909 142.178 23.4047L142.941 16.9654L143.292 15.1098ZM136.977 19.7997L136.997 19.6367C137.073 18.9954 137.217 18.4083 137.43 17.8756C137.648 17.3373 137.922 16.8695 138.253 16.4723C138.589 16.0747 138.974 15.761 139.408 15.531C139.843 15.2959 140.318 15.1606 140.832 15.1252C141.362 15.0887 141.814 15.15 142.186 15.309C142.565 15.4625 142.871 15.7057 143.105 16.0384C143.345 16.3656 143.516 16.7694 143.619 17.2497C143.721 17.7299 143.767 18.2782 143.756 18.8946L143.671 19.6084C143.541 20.2278 143.364 20.7889 143.14 21.2917C142.92 21.7941 142.65 22.2283 142.328 22.5941C142.012 22.9596 141.642 23.2492 141.22 23.4629C140.799 23.6715 140.32 23.7942 139.785 23.831C139.281 23.8657 138.836 23.7911 138.451 23.6073C138.071 23.4231 137.758 23.1497 137.512 22.787C137.267 22.4242 137.097 21.9896 137.002 21.4832C136.913 20.9711 136.905 20.41 136.977 19.7997ZM138.439 19.5375L138.419 19.7004C138.37 20.1194 138.365 20.5096 138.404 20.8711C138.449 21.2323 138.543 21.5464 138.687 21.8135C138.836 22.0803 139.041 22.2842 139.302 22.4253C139.565 22.5611 139.89 22.6156 140.28 22.5888C140.758 22.5559 141.165 22.4279 141.501 22.2047C141.836 21.9816 142.115 21.6982 142.336 21.3547C142.562 21.0108 142.75 20.6413 142.9 20.2463L143.122 18.3765C143.098 18.096 143.042 17.828 142.954 17.5724C142.872 17.3113 142.749 17.0838 142.587 16.8897C142.43 16.6902 142.224 16.5377 141.968 16.4321C141.713 16.3266 141.403 16.2863 141.04 16.3114C140.645 16.3385 140.295 16.4447 139.989 16.6299C139.69 16.8095 139.432 17.0478 139.216 17.3448C139.007 17.6363 138.835 17.9712 138.703 18.3497C138.576 18.7226 138.488 19.1186 138.439 19.5375Z" fill="#344455"/>
<path d="M154.254 23.509C153.667 23.4646 153.161 23.3288 152.736 23.1018C152.317 22.8701 151.984 22.5655 151.738 22.1879C151.496 21.8107 151.351 21.3741 151.301 20.8782C151.252 20.3822 151.306 19.8479 151.463 19.2753L151.549 18.9588C151.731 18.2958 151.994 17.7132 152.338 17.2112C152.684 16.7041 153.081 16.2829 153.528 15.9476C153.975 15.6123 154.445 15.3685 154.937 15.216C155.429 15.0636 155.912 15.0053 156.384 15.0411C156.987 15.0867 157.479 15.2265 157.86 15.4604C158.246 15.6948 158.53 16.0034 158.711 16.3863C158.894 16.7642 158.986 17.2018 158.988 17.6993C158.99 18.1917 158.913 18.7243 158.756 19.2969L158.585 19.9223L152.291 19.4456L152.602 18.3079L157.456 18.6754L157.485 18.5699C157.563 18.2067 157.581 17.8492 157.54 17.4974C157.504 17.146 157.373 16.849 157.148 16.6063C156.923 16.3637 156.564 16.2237 156.07 16.1863C155.743 16.1615 155.423 16.2065 155.111 16.3213C154.8 16.4311 154.51 16.6091 154.241 16.8553C153.972 17.1016 153.731 17.409 153.519 17.7774C153.307 18.1459 153.133 18.5763 152.998 19.0685L152.911 19.385C152.805 19.7717 152.76 20.14 152.776 20.4899C152.798 20.8351 152.88 21.1438 153.023 21.4161C153.171 21.6888 153.378 21.9096 153.644 22.0785C153.916 22.2477 154.249 22.3473 154.644 22.3772C155.153 22.4157 155.611 22.3479 156.02 22.1737C156.428 21.9995 156.811 21.7542 157.168 21.4377L157.856 22.1744C157.602 22.4268 157.301 22.663 156.954 22.8829C156.608 23.1027 156.209 23.2725 155.757 23.3921C155.311 23.5121 154.81 23.5511 154.254 23.509Z" fill="#344455"/>
<path d="M169.54 24.3144C169.623 24.1232 169.654 23.9358 169.633 23.7521C169.619 23.5648 169.504 23.3724 169.288 23.1749C169.079 22.9738 168.725 22.76 168.226 22.5335C167.809 22.3366 167.442 22.133 167.125 21.9227C166.814 21.7135 166.567 21.4905 166.385 21.2535C166.208 21.0178 166.103 20.7645 166.069 20.4937C166.036 20.2229 166.089 19.9275 166.227 19.6073C166.36 19.3014 166.556 19.0288 166.816 18.7894C167.082 18.5512 167.392 18.3577 167.747 18.2087C168.107 18.0609 168.5 17.9709 168.927 17.9387C169.354 17.9065 169.799 17.944 170.261 18.0513C170.92 18.2046 171.436 18.4454 171.807 18.7737C172.178 19.102 172.409 19.479 172.498 19.9048C172.589 20.3257 172.538 20.7584 172.346 21.2029L170.938 20.8757C171.031 20.6606 171.053 20.4368 171.003 20.2043C170.96 19.9681 170.838 19.7531 170.637 19.5592C170.442 19.3664 170.159 19.227 169.788 19.1409C169.398 19.0501 169.056 19.0338 168.763 19.0919C168.476 19.1464 168.24 19.2467 168.054 19.3928C167.873 19.54 167.741 19.7093 167.658 19.9004C167.596 20.0438 167.566 20.1787 167.567 20.3052C167.575 20.4281 167.627 20.5532 167.722 20.6806C167.82 20.8032 167.975 20.9341 168.189 21.0731C168.402 21.2121 168.684 21.367 169.034 21.5379C169.647 21.8381 170.128 22.1392 170.477 22.4413C170.826 22.7434 171.044 23.065 171.131 23.406C171.218 23.7471 171.171 24.1254 170.991 24.5412C170.844 24.8805 170.633 25.1734 170.359 25.42C170.09 25.6678 169.768 25.8614 169.395 26.0008C169.029 26.1367 168.626 26.2166 168.186 26.2405C167.752 26.2608 167.295 26.2149 166.813 26.1029C166.087 25.9343 165.526 25.6698 165.13 25.3094C164.733 24.9489 164.489 24.5451 164.398 24.0979C164.307 23.6506 164.355 23.212 164.542 22.7819L165.957 23.1108C165.82 23.4788 165.806 23.7938 165.916 24.056C166.028 24.3135 166.211 24.5218 166.466 24.6809C166.723 24.8354 166.996 24.9462 167.285 25.0134C167.671 25.103 168.014 25.1301 168.314 25.0946C168.619 25.0603 168.876 24.9755 169.086 24.8401C169.295 24.7047 169.447 24.5294 169.54 24.3144Z" fill="#344455"/>
</svg>
