<svg width="310" height="178" viewBox="0 0 310 178" fill="none" xmlns="http://www.w3.org/2000/svg">
<path fill-rule="evenodd" clip-rule="evenodd" d="M129.231 89C129.231 65.146 138.656 43.484 154 27.5042C137.726 10.5561 114.793 0 89.3846 0C62.6904 0 38.7292 11.6513 22.3509 30.1251L20.8111 31.9086C18.6816 34.4417 16.6911 37.0945 14.8511 39.8555L13.652 41.704C5.00255 55.4061 0 71.6214 0 89C0 138.153 40.0189 178 89.3846 178C114.793 178 137.726 167.444 154 150.496C138.656 134.516 129.231 112.854 129.231 89Z" fill="#D9D9D9"/>
<path fill-rule="evenodd" clip-rule="evenodd" d="M156 150.496C171.344 134.516 180.769 112.854 180.769 89C180.769 65.146 171.344 43.484 156 27.5042C172.274 10.5562 195.207 0 220.615 0C269.981 0 310 39.8466 310 89C310 138.153 269.981 178 220.615 178C195.207 178 172.274 167.444 156 150.496Z" fill="#D9D9D9"/>
<path fill-rule="evenodd" clip-rule="evenodd" d="M155.269 139.174C167.191 126.121 174.537 108.271 174.537 88.5868C174.537 68.9028 167.191 51.0531 155.269 38C143.347 51.0531 136 68.9028 136 88.5868C136 108.271 143.347 126.121 155.269 139.174Z" fill="#344455"/>
<path d="M150 99.2682L155.096 91.4362L158.893 100.07L150 99.2682ZM162.739 91.9534C163.125 91.7593 163.586 91.9366 163.767 92.3496C163.949 92.7625 163.783 93.2547 163.397 93.4488L162.739 91.9534ZM155.966 95.3569L162.739 91.9534L163.397 93.4488L156.624 96.8524L155.966 95.3569Z" fill="white"/>
<path d="M163.252 84.3226L157.228 77.2836L154.537 86.38L163.252 84.3226ZM150.233 79.0557C149.826 78.9182 149.392 79.1594 149.263 79.5944C149.134 80.0295 149.36 80.4937 149.767 80.6313L150.233 79.0557ZM156.853 81.2931L150.233 79.0557L149.767 80.6313L156.386 82.8686L156.853 81.2931Z" fill="white"/>
</svg>
