<svg width="22" height="16" viewBox="0 0 22 16" fill="none" xmlns="http://www.w3.org/2000/svg">
<path fill-rule="evenodd" clip-rule="evenodd" d="M2 1C2 0.447715 2.44772 0 3 0H19C19.5523 0 20 0.447715 20 1C20 1.55228 19.5523 2 19 2H3C2.44772 2 2 1.55228 2 1ZM0 8C0 7.44772 0.447715 7 1 7H21C21.5523 7 22 7.44772 22 8C22 8.55229 21.5523 9 21 9H1C0.447715 9 0 8.55229 0 8ZM3 14C2.44772 14 2 14.4477 2 15C2 15.5523 2.44772 16 3 16H19C19.5523 16 20 15.5523 20 15C20 14.4477 19.5523 14 19 14H3Z" fill="#344455"/>
</svg>

