<svg width="52" height="52" viewBox="0 0 52 52" fill="none" xmlns="http://www.w3.org/2000/svg">
<rect x="1.5" y="1.5" width="49" height="49" rx="24.5" stroke="#344455" stroke-width="3"/>
<path d="M22.001 26C22.001 23.7909 23.7913 21.9997 26.0005 21.9997C28.2096 21.9997 30.001 23.7909 30.001 26C30.001 28.2091 28.2096 30.0003 26.0005 30.0003C23.7913 30.0003 22.001 28.2091 22.001 26ZM19.8384 26C19.8384 29.4032 22.5971 32.1619 26.0005 32.1619C29.4038 32.1619 32.1626 29.4032 32.1626 26C32.1626 22.5968 29.4038 19.8381 26.0005 19.8381C22.5971 19.8381 19.8384 22.5968 19.8384 26ZM30.9665 19.5938C30.9664 19.8786 31.0507 20.1571 31.2088 20.3939C31.367 20.6308 31.5918 20.8155 31.8549 20.9246C32.118 21.0337 32.4075 21.0623 32.6869 21.0068C32.9663 20.9514 33.2229 20.8143 33.4244 20.613C33.6259 20.4117 33.7631 20.1552 33.8188 19.8759C33.8745 19.5966 33.8461 19.307 33.7372 19.0439C33.6283 18.7807 33.4438 18.5557 33.2071 18.3974C32.9703 18.2391 32.6919 18.1545 32.4071 18.1544C32.0253 18.1546 31.6587 18.3063 31.3887 18.5762C31.1186 18.846 30.9668 19.2121 30.9665 19.5938ZM21.1523 35.7677C19.9823 35.7144 19.3464 35.5196 18.9237 35.3549C18.3635 35.1368 17.9637 34.877 17.5434 34.4573C17.1231 34.0376 16.8629 33.6382 16.6458 33.078C16.481 32.6556 16.2861 32.0195 16.233 30.8495C16.1748 29.5846 16.1632 29.2047 16.1632 26.0001C16.1632 22.7955 16.1757 22.4166 16.233 21.1507C16.2862 19.9807 16.4826 19.3459 16.6458 18.9222C16.8639 18.362 17.1237 17.9622 17.5434 17.5419C17.9631 17.1216 18.3625 16.8615 18.9237 16.6443C19.3462 16.4796 19.9823 16.2847 21.1523 16.2315C22.4172 16.1733 22.7972 16.1617 26.0005 16.1617C29.2037 16.1617 29.5841 16.1743 30.8501 16.2315C32.0201 16.2848 32.655 16.4811 33.0787 16.6443C33.6389 16.8615 34.0387 17.1222 34.459 17.5419C34.8793 17.9616 35.1385 18.362 35.3566 18.9222C35.5214 19.3446 35.7163 19.9807 35.7694 21.1507C35.8276 22.4166 35.8392 22.7955 35.8392 26.0001C35.8392 29.2047 35.8276 29.5836 35.7694 30.8495C35.7162 32.0195 35.5203 32.6554 35.3566 33.078C35.1385 33.6382 34.8787 34.038 34.459 34.4573C34.0393 34.8766 33.6389 35.1368 33.0787 35.3549C32.6562 35.5196 32.0201 35.7145 30.8501 35.7677C29.5852 35.8259 29.2052 35.8375 26.0005 35.8375C22.7958 35.8375 22.4168 35.8259 21.1523 35.7677ZM21.0529 14.0727C19.7754 14.1308 18.9024 14.3334 18.1401 14.63C17.3505 14.9364 16.6822 15.3474 16.0143 16.0142C15.3464 16.681 14.9364 17.3504 14.6301 18.1399C14.3334 18.9027 14.1309 19.7752 14.0727 21.0526C14.0135 22.3321 14 22.7412 14 26C14 29.2588 14.0135 29.6679 14.0727 30.9474C14.1309 32.2249 14.3334 33.0973 14.6301 33.8601C14.9364 34.6491 15.3465 35.3193 16.0143 35.9858C16.6821 36.6524 17.3505 37.0628 18.1401 37.37C18.9039 37.6666 19.7754 37.8692 21.0529 37.9273C22.3331 37.9855 22.7415 38 26.0005 38C29.2594 38 29.6685 37.9865 30.948 37.9273C32.2257 37.8692 33.098 37.6666 33.8609 37.37C34.6499 37.0628 35.3188 36.6526 35.9867 35.9858C36.6546 35.319 37.0637 34.6491 37.3709 33.8601C37.6675 33.0973 37.8711 32.2248 37.9283 30.9474C37.9865 29.6669 38 29.2588 38 26C38 22.7412 37.9865 22.3321 37.9283 21.0526C37.8701 19.7751 37.6675 18.9022 37.3709 18.1399C37.0637 17.3509 36.6535 16.682 35.9867 16.0142C35.3199 15.3463 34.6499 14.9364 33.8619 14.63C33.098 14.3334 32.2256 14.1299 30.949 14.0727C29.6695 14.0145 29.2604 14 26.0014 14C22.7425 14 22.3331 14.0135 21.0529 14.0727Z" fill="#344455"/>
</svg>
