<svg width="143" height="230" viewBox="0 0 143 230" fill="none" xmlns="http://www.w3.org/2000/svg">
<path d="M81.7011 4L81.7011 2.893e-06L77.7082 3.0838e-06L77.7012 3.99293L81.7011 4ZM81.3439 206L81.3439 210L85.3368 210L85.3438 206.007L81.3439 206ZM-2.40883e-06 206L40 229.094L40 182.906L-2.40883e-06 206ZM139 8C141.209 8 143 6.20914 143 4C143 1.79086 141.209 2.63437e-08 139 0L139 8ZM77.7012 3.99293L77.3439 205.993L85.3438 206.007L85.7011 4.00708L77.7012 3.99293ZM81.3439 202L36 202L36 210L81.3439 210L81.3439 202ZM81.7011 8L139 8L139 0L81.7011 2.893e-06L81.7011 8Z" fill="#66B2C2"/>
</svg>
