<svg width="52" height="52" viewBox="0 0 52 52" fill="none" xmlns="http://www.w3.org/2000/svg">
<rect x="1.5" y="1.5" width="49" height="49" rx="24.5" stroke="#344455" stroke-width="3"/>
<path d="M19.4481 37.9994V21.8061H14.3033V37.9994H19.4486H19.4481ZM16.8767 19.5956C18.6705 19.5956 19.7872 18.3521 19.7872 16.7981C19.7536 15.2088 18.6705 14 16.9109 14C15.15 14 14 15.2088 14 16.798C14 18.352 15.1163 19.5954 16.843 19.5954H16.8763L16.8767 19.5956ZM22.2958 37.9994H27.4403V28.9573C27.4403 28.474 27.4738 27.9894 27.6097 27.6442C27.9815 26.6768 28.828 25.6754 30.2496 25.6754C32.1107 25.6754 32.8557 27.1603 32.8557 29.3374V37.9994H38V28.7147C38 23.741 35.4622 21.4265 32.0774 21.4265C29.3023 21.4265 28.0836 23.0491 27.4064 24.1543H27.4407V21.8067H22.2961C22.3632 23.3258 22.2957 38 22.2957 38L22.2958 37.9994Z" fill="#344455"/>
</svg>
