<svg width="80" height="24" viewBox="0 0 80 24" fill="none" xmlns="http://www.w3.org/2000/svg">
<path d="M54.9133 11.504V17.496C54.6691 17.7699 54.2929 18.0638 53.7846 18.3778C53.283 18.685 52.6493 18.9489 51.8837 19.1693C51.118 19.3898 50.2171 19.5 49.1808 19.5C48.2237 19.5 47.3557 19.3464 46.5769 19.0391C45.798 18.7251 45.1281 18.2675 44.567 17.6663C44.0126 17.0585 43.5836 16.317 43.2799 15.4419C42.9829 14.5601 42.8344 13.5514 42.8344 12.4158V11.6042C42.8344 10.4686 42.9862 9.45992 43.2898 8.57816C43.5935 7.69639 44.0192 6.95491 44.567 6.35371C45.1215 5.74583 45.7716 5.2849 46.5175 4.97094C47.2699 4.65698 48.095 4.5 48.9927 4.5C50.3194 4.5 51.3985 4.71376 52.2302 5.14128C53.0619 5.56212 53.6922 6.14663 54.1212 6.89479C54.5503 7.63627 54.811 8.49466 54.9034 9.46994H51.5669C51.5008 8.98898 51.3754 8.5815 51.1906 8.2475C51.0124 7.90681 50.755 7.64963 50.4184 7.47595C50.0817 7.29559 49.6461 7.20541 49.1115 7.20541C48.6956 7.20541 48.3161 7.29559 47.9729 7.47595C47.6363 7.65631 47.3491 7.93019 47.1115 8.2976C46.8739 8.65832 46.6891 9.11256 46.5571 9.66032C46.4317 10.2081 46.369 10.8494 46.369 11.5842V12.4158C46.369 13.144 46.4284 13.7819 46.5472 14.3297C46.6726 14.8774 46.8574 15.335 47.1016 15.7024C47.3524 16.0631 47.6693 16.337 48.0521 16.524C48.4415 16.7044 48.9003 16.7946 49.4283 16.7946C49.7979 16.7946 50.1147 16.7645 50.3788 16.7044C50.6428 16.6376 50.8606 16.5574 51.0322 16.4639C51.2104 16.3637 51.3457 16.2702 51.4381 16.1834V13.9188H49.0224V11.504H54.9133Z" fill="#344455"/>
<path d="M66.9122 16.5942V19.2996H59.2292V16.5942H66.9122ZM60.4668 4.71042V19.2996H56.9916V4.71042H60.4668ZM65.9221 10.502V13.1172H59.2292V10.502H65.9221ZM66.9419 4.71042V7.42585H59.2292V4.71042H66.9419Z" fill="#344455"/>
<path d="M68.3865 4.71042H74.0596C75.1685 4.71042 76.1322 4.87742 76.9507 5.21142C77.7691 5.54542 78.3995 6.03975 78.8417 6.69439C79.2905 7.34903 79.515 8.15731 79.515 9.11924C79.515 9.95424 79.3862 10.6523 79.1288 11.2134C78.8714 11.7745 78.5117 12.2388 78.0496 12.6062C77.5942 12.9669 77.0629 13.2642 76.4556 13.498L75.317 14.1493H70.5548L70.535 11.4339H74.0596C74.5019 11.4339 74.8682 11.3537 75.1586 11.1934C75.4491 11.0331 75.6669 10.8059 75.8121 10.512C75.9639 10.2114 76.0398 9.85404 76.0398 9.43988C76.0398 9.01904 75.9639 8.65832 75.8121 8.35772C75.6603 8.05711 75.4358 7.82665 75.1388 7.66633C74.8484 7.50601 74.4887 7.42585 74.0596 7.42585H71.8617V19.2996H68.3865V4.71042ZM76.2774 19.2996L73.0894 12.8467L76.7724 12.8267L80.0001 19.1493V19.2996H76.2774Z" fill="#344455"/>
<path fill-rule="evenodd" clip-rule="evenodd" d="M5.28941 0C2.36815 0 0 2.14903 0 4.8V19.2C0 21.851 2.36815 24 5.2894 24H38.9484C40.9299 24 42.0866 21.5434 41.2166 19.783C38.7951 14.8835 38.7951 9.1165 41.2166 4.21699C42.0866 2.45663 40.9299 0 38.9484 0H5.28941ZM27.0489 11.3252V11.9248C27.0489 12.6374 26.9671 13.2761 26.8035 13.8409C26.6398 14.4057 26.4044 14.8859 26.0971 15.2812C25.7898 15.6766 25.4206 15.9786 24.9896 16.1872C24.5626 16.3957 24.0837 16.5 23.5529 16.5C23.0381 16.5 22.5652 16.3957 22.1342 16.1872C21.7072 15.9786 21.336 15.6766 21.0207 15.2812C20.7094 14.8859 20.468 14.4057 20.2964 13.8409C20.1248 13.2761 20.039 12.6374 20.039 11.9248V11.3252C20.039 10.6126 20.1228 9.9761 20.2904 9.41561C20.462 8.85077 20.7035 8.37066 21.0147 7.97527C21.326 7.57553 21.6952 7.27139 22.1222 7.06283C22.5532 6.85428 23.0261 6.75 23.541 6.75C24.0717 6.75 24.5506 6.85428 24.9777 7.06283C25.4087 7.27139 25.7778 7.57553 26.0851 7.97527C26.3964 8.37066 26.6339 8.85077 26.7975 9.41561C26.9651 9.9761 27.0489 10.6126 27.0489 11.3252ZM25.9055 11.9248V11.3122C25.9055 10.7473 25.8517 10.2477 25.7439 9.81317C25.6401 9.37868 25.4865 9.0137 25.283 8.71825C25.0794 8.42279 24.83 8.19903 24.5347 8.04696C24.2433 7.89489 23.9121 7.81885 23.541 7.81885C23.1818 7.81885 22.8565 7.89489 22.5652 8.04696C22.2778 8.19903 22.0304 8.42279 21.8229 8.71825C21.6194 9.0137 21.4617 9.37868 21.35 9.81317C21.2382 10.2477 21.1824 10.7473 21.1824 11.3122V11.9248C21.1824 12.494 21.2382 12.998 21.35 13.4368C21.4617 13.8713 21.6214 14.2385 21.8289 14.5383C22.0404 14.8337 22.2898 15.0575 22.5772 15.2096C22.8685 15.3616 23.1937 15.4377 23.5529 15.4377C23.9281 15.4377 24.2613 15.3616 24.5526 15.2096C24.844 15.0575 25.0894 14.8337 25.2889 14.5383C25.4925 14.2385 25.6461 13.8713 25.7499 13.4368C25.8536 12.998 25.9055 12.494 25.9055 11.9248ZM7.58257 11.9313H7.88787H9.5341C9.9252 11.9313 10.2445 12.0008 10.4919 12.1399C10.7393 12.2789 10.9209 12.4766 11.0366 12.733C11.1524 12.9893 11.2103 13.2934 11.2103 13.6454C11.2103 13.993 11.1424 14.295 11.0067 14.5513C10.871 14.8033 10.6735 14.9988 10.4141 15.1379C10.1587 15.2769 9.84738 15.3464 9.48022 15.3464H7.58257V11.9313ZM7.58257 10.9211V7.91009H9.28267C9.66579 7.91009 9.98107 7.96223 10.2285 8.06651C10.4799 8.16644 10.6655 8.32721 10.7852 8.5488C10.9089 8.76604 10.9708 9.04846 10.9708 9.39606C10.9708 9.71323 10.901 9.98697 10.7613 10.2172C10.6256 10.4432 10.434 10.617 10.1866 10.7386C9.93917 10.8603 9.64983 10.9211 9.31859 10.9211H7.89984H7.58257ZM10.846 11.3702C10.9286 11.3309 11.0081 11.2877 11.0845 11.2405C11.4118 11.0406 11.6672 10.7843 11.8508 10.4714C12.0344 10.1542 12.1262 9.80013 12.1262 9.40909C12.1262 8.96591 12.0623 8.58573 11.9346 8.26855C11.8069 7.95137 11.6193 7.69067 11.3719 7.48646C11.1284 7.27791 10.8311 7.12584 10.4799 7.03025C10.1287 6.93031 9.72965 6.88035 9.28267 6.88035H6.42722V16.3697H6.87021H7.58257H9.48022C10.0629 16.3697 10.5697 16.2654 11.0007 16.0568C11.4317 15.8439 11.765 15.5354 12.0004 15.1313C12.2399 14.7229 12.3596 14.2233 12.3596 13.6324C12.3596 13.2239 12.2818 12.8503 12.1262 12.5114C11.9745 12.1725 11.753 11.8944 11.4617 11.6771C11.281 11.5397 11.0758 11.4374 10.846 11.3702ZM19.381 16.3697V15.3464H15.2505V6.88035H14.0951V16.3697H15.023H15.2505H19.381ZM35.2496 15.1183V11.6446H32.0829V12.6613H34.1002V14.7859C34.0244 14.8815 33.9146 14.9836 33.771 15.0922C33.6273 15.1965 33.4278 15.2878 33.1724 15.366C32.9169 15.4398 32.5837 15.4768 32.1726 15.4768C31.8015 15.4768 31.4623 15.3986 31.155 15.2421C30.8517 15.0857 30.5903 14.8576 30.3708 14.5578C30.1513 14.2537 29.9817 13.8865 29.8619 13.4564C29.7462 13.0262 29.6883 12.5374 29.6883 11.99V11.2405C29.6883 10.706 29.7342 10.2259 29.826 9.80013C29.9218 9.37433 30.0655 9.01153 30.257 8.71173C30.4486 8.41193 30.692 8.18165 30.9874 8.02089C31.2827 7.86013 31.6319 7.77975 32.035 7.77975C32.4819 7.77975 32.8471 7.86664 33.1304 8.04044C33.4138 8.20989 33.6313 8.43583 33.783 8.71825C33.9386 9.00067 34.0424 9.3135 34.0942 9.65675H35.2496C35.1778 9.09626 35.0141 8.59659 34.7587 8.15775C34.5073 7.71892 34.1561 7.37567 33.7051 7.12801C33.2582 6.876 32.7014 6.75 32.035 6.75C31.4723 6.75 30.9734 6.85211 30.5384 7.05632C30.1034 7.25618 29.7362 7.55164 29.4369 7.94268C29.1376 8.32938 28.9101 8.8008 28.7545 9.35695C28.6028 9.9131 28.527 10.5453 28.527 11.2535V11.99C28.527 12.6982 28.6148 13.3326 28.7904 13.893C28.97 14.4492 29.2214 14.9228 29.5447 15.3138C29.8719 15.7005 30.257 15.996 30.7 16.2002C31.147 16.4001 31.6359 16.5 32.1667 16.5C32.8172 16.5 33.3479 16.4218 33.759 16.2654C34.1741 16.1046 34.4993 15.9178 34.7348 15.7049C34.9702 15.4876 35.1418 15.2921 35.2496 15.1183Z" fill="#66B2C2"/>
</svg>
