<svg width="52" height="52" viewBox="0 0 52 52" fill="none" xmlns="http://www.w3.org/2000/svg">
<rect x="1.5" y="1.5" width="49" height="49" rx="24.5" stroke="#344455" stroke-width="3"/>
<path d="M37.8933 18.4026C37.1169 18.7403 36.3007 18.9755 35.4649 19.1023C35.8557 19.0346 36.4307 18.3235 36.6595 18.0357C37.0073 17.6016 37.2723 17.106 37.4411 16.5741C37.4411 16.5346 37.4802 16.4782 37.4411 16.4499C37.4214 16.4391 37.3993 16.4334 37.3769 16.4334C37.3545 16.4334 37.3324 16.4391 37.3127 16.4499C36.4051 16.9468 35.4392 17.326 34.4378 17.5786C34.4029 17.5894 34.3657 17.5904 34.3303 17.5814C34.2949 17.5725 34.2626 17.5539 34.2368 17.5278C34.1588 17.434 34.0749 17.3454 33.9856 17.2626C33.5771 16.8926 33.1137 16.5899 32.6123 16.3653C31.9355 16.0846 31.2044 15.963 30.4743 16.0098C29.7658 16.055 29.0742 16.2471 28.4423 16.5741C27.8201 16.9189 27.2732 17.3872 26.8346 17.9511C26.3732 18.5314 26.0401 19.2049 25.8576 19.9263C25.7072 20.6124 25.6902 21.3216 25.8074 22.0143C25.8074 22.1328 25.8074 22.1497 25.7069 22.1328C21.7267 21.5403 18.461 20.1125 15.7926 17.0481C15.6754 16.9127 15.614 16.9127 15.5191 17.0481C14.3579 18.8314 14.9217 21.6531 16.3732 23.047C16.5686 23.2333 16.7695 23.4139 16.9816 23.5832C16.3162 23.5354 15.667 23.3531 15.0725 23.047C14.9608 22.9737 14.8994 23.0132 14.8938 23.1486C14.878 23.3364 14.878 23.5252 14.8938 23.713C15.0103 24.6128 15.3611 25.4653 15.9104 26.1832C16.4597 26.9011 17.1877 27.4586 18.02 27.7988C18.2229 27.8866 18.4343 27.9528 18.6508 27.9963C18.0347 28.1189 17.4029 28.138 16.7807 28.0527C16.6467 28.0245 16.5965 28.0979 16.6467 28.2277C17.4673 30.485 19.2481 31.1735 20.5544 31.5572C20.733 31.5855 20.9116 31.5855 21.1126 31.6306C21.1126 31.6306 21.1126 31.6306 21.0791 31.6645C20.6939 32.3755 19.1364 32.8552 18.4219 33.1035C17.1177 33.5771 15.7271 33.7581 14.3468 33.634C14.1291 33.6001 14.0788 33.6058 14.023 33.634C13.9672 33.6622 14.023 33.7243 14.0844 33.7807C14.3635 33.967 14.6426 34.1306 14.9329 34.2886C15.7971 34.7651 16.7107 35.1436 17.6571 35.4173C22.5584 36.783 28.0738 35.7785 31.7526 32.0821C34.6443 29.1814 35.6603 25.1802 35.6603 21.1734C35.6603 21.0211 35.8445 20.9308 35.9506 20.8518C36.6822 20.2755 37.3271 19.595 37.8653 18.8314C37.9586 18.7176 38.0063 18.5727 37.9993 18.4251C37.9993 18.3405 37.9993 18.3574 37.8933 18.4026Z" fill="#344455"/>
</svg>
