<svg width="166" height="12" viewBox="0 0 166 12" fill="none" xmlns="http://www.w3.org/2000/svg">
<path d="M154.667 6C154.667 8.94552 157.054 11.3333 160 11.3333C162.946 11.3333 165.333 8.94552 165.333 6C165.333 3.05448 162.946 0.666667 160 0.666667C157.054 0.666667 154.667 3.05448 154.667 6ZM0.666667 6C0.666667 8.94552 3.05448 11.3333 6 11.3333C8.94552 11.3333 11.3333 8.94552 11.3333 6C11.3333 3.05448 8.94552 0.666667 6 0.666667C3.05448 0.666667 0.666667 3.05448 0.666667 6ZM160 5H6V7H160V5Z" fill="white"/>
</svg>
